<svg width="132" height="132" viewBox="0 0 132 132" fill="none" xmlns="http://www.w3.org/2000/svg">
<path d="M20.5815 83.8389C20.6536 83.8865 20.7319 83.9225 20.8137 83.9455C22.7124 84.4693 24.6021 84.9947 26.4827 85.5218C28.6614 86.1332 29.9434 87.6377 30.3287 90.0352C31.1373 95.065 31.945 100.095 32.7519 105.125C32.8408 105.675 32.8211 106.401 33.0236 106.981C33.4403 108.174 34.1887 109.004 35.269 109.472C35.8091 109.705 36.6374 109.822 37.7539 109.824C42.4587 109.832 47.1619 109.83 51.8634 109.819C52.7032 109.816 53.6188 109.627 54.6102 109.254C58.7847 107.672 61.1783 103.992 61.2474 99.4611C61.2557 98.8563 61.6229 98.3433 62.3491 97.9219C63.2202 97.4163 64.042 97.4411 64.8143 97.9963C65.6467 98.5936 65.7801 99.471 65.7184 100.519C65.2515 108.394 59.0095 114.305 51.1223 114.33C46.8177 114.345 42.5139 114.351 38.2109 114.35C36.495 114.35 35.2336 114.23 34.4267 113.99C31.1266 113.006 28.733 110.049 28.3378 106.607C27.7227 101.246 26.6951 95.8771 25.8528 90.5607C25.8279 90.401 25.7576 90.2518 25.6503 90.131C25.543 90.0101 25.4032 89.9227 25.2476 89.8791C23.7573 89.4676 22.2629 89.0521 20.7643 88.6324C19.3152 88.2259 18.3156 87.8169 17.7656 87.4055C15.866 85.9779 15.209 83.3804 16.1551 81.1422C18.976 74.4651 20.747 70.2045 21.4683 68.3605C22.5667 65.5564 23.1291 62.5582 23.1554 59.3658C23.1752 56.9832 23.1851 55.7893 23.1851 55.7844C24.5091 32.4886 43.5538 13.8848 67.1165 13.9219C85.5783 13.9517 102.052 25.5735 108.459 42.9208C112.925 55.0135 111.688 68.6951 105.317 79.9253C104.344 81.6404 102.852 83.6629 102.037 85.3533C100.831 87.85 100.227 90.4054 100.224 93.0194C100.215 100.683 100.205 108.346 100.192 116.008C100.187 118.489 96.847 119.237 95.901 117.017C95.7709 116.713 95.7058 116.237 95.7058 115.591C95.7009 108.314 95.6877 101.038 95.6663 93.7629C95.6564 90.0617 96.4164 86.6124 97.9463 83.4151C98.8404 81.5462 100.441 79.3205 101.219 77.9697C112.416 58.5207 105.537 33.9981 85.8475 23.2263C74.5738 17.0573 60.6249 16.8664 49.2055 22.743C36.5683 29.2442 28.3032 42.083 27.6807 56.404C27.6165 57.8862 27.7178 60.1193 27.5523 61.7676C27.2147 65.0937 26.3057 68.5306 24.8252 72.0783C23.3415 75.6374 21.8487 79.1925 20.3469 82.7434C20.1641 83.1722 20.1814 83.5663 20.5815 83.8389Z" fill="black"/>
<path d="M74.0125 31.9524L74.0124 31.9526L74.0125 31.9524Z" fill="#9ACFCE" stroke="#9ACFCE" stroke-width="10"/>
<path d="M67.5395 59.7394C67.5869 59.7329 67.6046 59.7487 67.5926 59.7868C64.6999 68.7595 61.81 77.7198 58.9229 86.6679C58.8121 87.0114 58.7715 87.2674 58.8012 87.4359C58.9856 88.4799 60.8689 88.816 61.5304 87.8843C70.3491 75.473 79.1677 63.0616 87.9864 50.6502C88.2258 50.3132 88.3651 50.0546 88.4045 49.8745C88.566 49.1346 87.9322 48.3472 87.0477 48.1622C86.7553 48.1009 86.2749 48.1131 85.6066 48.199C79.6911 48.9602 73.772 49.7208 67.8492 50.4807C67.8412 50.4818 67.833 50.4809 67.8256 50.4779C67.8183 50.475 67.8122 50.4702 67.8082 50.4643C67.8002 50.4507 67.8014 50.4368 67.8119 50.4226C67.8255 50.4033 67.8331 50.3923 67.8348 50.3897C70.7628 44.3328 73.6908 38.2763 76.6189 32.2201C76.8502 31.7397 76.9635 31.3397 76.7394 30.8952C76.4076 30.2405 75.7774 29.9125 74.8488 29.9112C70.8821 29.9074 66.9158 29.9057 62.9499 29.9064C62.3578 29.907 61.8843 30.0649 61.5292 30.38C61.3332 30.5537 61.1272 30.8994 60.9111 31.4172C57.0054 40.774 53.1002 50.1308 49.1953 59.4876C49.0516 59.833 48.9813 60.0951 48.9845 60.274C48.9941 60.9539 49.6303 61.5872 50.4437 61.7296C50.7015 61.7742 51.1462 61.7574 51.7776 61.6793C57.0424 61.0271 62.2964 60.3805 67.5395 59.7394Z" stroke="#9ACFCE" stroke-width="4"/>
</svg>
